<svg width="21" height="21" viewBox="0 0 21 21" fill="none" xmlns="http://www.w3.org/2000/svg">
<path d="M1.72363 5.95386H3.5447V16.1024L1.72363 15.8748V5.95386Z" fill="white"/>
<path d="M10.5557 9.36835H12.3767V19.6574H10.5557V9.36835Z" fill="white"/>
<path d="M10.92 0.900391L10.92 2.6304L2.33045 6.83163L1.74617 5.11439L10.92 0.900391Z" fill="white"/>
<path d="M19.9798 5.1799L20.7633 6.49405L12.2858 10.9618L11.2842 9.36835L19.9798 5.1799Z" fill="white"/>
<path d="M10.9201 0.900413L10.9201 2.63043L19.4186 6.87328L20.0028 5.15604L10.9201 0.900413Z" fill="white"/>
<path d="M1.76936 5.13438L0.894727 6.49408L10.556 11.0073L11.33 9.36836L1.76936 5.13438Z" fill="white"/>
<path d="M12.377 19.6573L12.377 17.8363L19.9799 14.0576L19.9799 15.8331L12.377 19.6573Z" fill="white"/>
<path d="M10.5556 19.6574L10.5556 17.8363L1.73008 14.1487L1.73008 15.8707L10.5556 19.6574Z" fill="white"/>
<path d="M19.9341 5.81726H18.113V16.0569L19.9341 15.8292V5.81726Z" fill="white"/>
</svg>
