<svg width="120" height="40" viewBox="0 0 120 40" fill="none" xmlns="http://www.w3.org/2000/svg">
<g clip-path="url(#clip0_20_82)">
<mask id="mask0_20_82" style="mask-type:luminance" maskUnits="userSpaceOnUse" x="0" y="0" width="120" height="40">
<path d="M120 0H0V39.1274H120V0Z" fill="white"/>
</mask>
<g mask="url(#mask0_20_82)">
<path d="M66.9025 2.71707C66.9005 2.50312 66.8413 2.2936 66.7315 2.11004C66.6216 1.92649 66.4648 1.77555 66.2772 1.67271C65.2158 1.07054 62.7874 0 58.9342 0C55.0808 0 52.6001 1.07344 51.5183 1.67562C51.328 1.77789 51.1687 1.9292 51.0567 2.11387C50.9447 2.29853 50.8842 2.50982 50.8813 2.72579V10.8712C50.8813 12.8552 51.7189 14.4842 54.3711 15.7438C56.4505 16.7242 58.0384 17.4282 58.6374 17.9664C58.7088 18.0298 58.8009 18.0648 58.8963 18.0648C58.9918 18.0648 59.0838 18.0298 59.1552 17.9664C59.7513 17.4282 61.3422 16.7242 63.4214 15.7438C66.0854 14.4842 66.9113 12.8552 66.9113 10.8712L66.9025 2.71707Z" fill="#ED1C24"/>
<path d="M59.7542 9.05005C59.7094 9.0522 59.665 9.04008 59.6274 9.01543C59.5899 8.99077 59.5611 8.95485 59.5453 8.91283C59.5296 8.87081 59.5274 8.82485 59.5394 8.78156C59.5512 8.73826 59.5766 8.69986 59.6117 8.67188C60.3039 8.15987 60.8244 7.5606 60.8244 6.53953C60.8244 5.51844 60.0625 4.62828 59.1261 4.62828C59.0956 4.62548 59.0649 4.6288 59.0358 4.638C59.0066 4.64722 58.9797 4.66216 58.9565 4.68193C58.9332 4.7017 58.914 4.72592 58.9003 4.75317C58.8863 4.78042 58.8781 4.81016 58.8759 4.84064V12.6166C58.8512 12.7906 58.861 12.9678 58.9049 13.1381C58.9489 13.3083 59.026 13.4682 59.1318 13.6085C59.1544 13.6437 59.1668 13.6845 59.1677 13.7263C59.1686 13.7681 59.1579 13.8093 59.1368 13.8454C59.1157 13.8815 59.0851 13.9111 59.0484 13.931C59.0116 13.9507 58.97 13.9599 58.9282 13.9577H55.8311C55.7896 13.9589 55.7487 13.949 55.7126 13.929C55.6764 13.9089 55.6462 13.8795 55.6254 13.8438C55.6045 13.8079 55.5937 13.7672 55.5941 13.7258C55.5944 13.6844 55.606 13.6439 55.6275 13.6085C55.7333 13.4682 55.8104 13.3083 55.8544 13.1381C55.8983 12.9678 55.9081 12.7906 55.8834 12.6166V4.861C55.8834 4.23846 55.8834 3.75846 55.5518 3.30756C55.5302 3.27404 55.5183 3.23517 55.5174 3.19529C55.5166 3.15539 55.5269 3.11606 55.5471 3.08165C55.5674 3.04727 55.5966 3.01916 55.6319 3.00048C55.6671 2.98181 55.707 2.97331 55.7468 2.97593H59.8531C62.0807 2.97593 63.6337 3.97955 63.6337 5.88498C63.6337 7.79042 62.2465 9.0646 59.7513 9.05005" fill="white"/>
<path d="M118.467 22.1495C118.413 22.1524 118.359 22.1524 118.304 22.1495H118.051V21.6491H118.467C118.516 21.6507 118.564 21.6606 118.61 21.6783C118.651 21.695 118.688 21.7208 118.717 21.754C118.743 21.7982 118.756 21.8484 118.756 21.8993C118.756 21.9505 118.743 22.0006 118.717 22.0448C118.688 22.0779 118.651 22.1038 118.61 22.1205C118.564 22.1369 118.516 22.1466 118.467 22.1495ZM118.976 22.2717C119.021 22.2248 119.056 22.169 119.078 22.1078C119.1 22.0468 119.109 21.9816 119.104 21.9168C119.108 21.8424 119.096 21.768 119.068 21.6992C119.04 21.6301 118.996 21.5684 118.941 21.5183C118.795 21.4133 118.615 21.3638 118.435 21.3787H117.702V23.1648H118.051V22.4346H118.304L118.778 23.1648H119.145L118.653 22.4084C118.773 22.4008 118.887 22.3526 118.976 22.2717Z" fill="#008BCE"/>
<path d="M119.601 22.775C119.531 22.9289 119.433 23.0681 119.311 23.1852C119.111 23.3652 118.865 23.4865 118.601 23.5352C118.336 23.584 118.064 23.5585 117.813 23.4615C117.652 23.3962 117.504 23.3025 117.377 23.1852C117.254 23.069 117.155 22.9296 117.086 22.775C117.015 22.6178 116.978 22.4473 116.978 22.2746C116.978 22.1021 117.015 21.9316 117.086 21.7742C117.155 21.6197 117.254 21.4804 117.377 21.3641C117.503 21.2415 117.651 21.143 117.813 21.0732C118.064 20.9743 118.339 20.9492 118.604 21.0008C118.869 21.0523 119.114 21.1784 119.311 21.3641C119.433 21.4812 119.531 21.6205 119.601 21.7742C119.67 21.9321 119.706 22.1024 119.706 22.2746C119.706 22.4468 119.67 22.6173 119.601 22.775ZM119.869 21.6666C119.784 21.4805 119.663 21.3126 119.514 21.1722C119.361 21.0271 119.181 20.9126 118.985 20.8346C118.572 20.6679 118.11 20.6679 117.697 20.8346C117.501 20.9126 117.323 21.0271 117.17 21.1722C117.019 21.3116 116.898 21.4797 116.813 21.6666C116.725 21.8573 116.679 22.0648 116.679 22.2746C116.679 22.4846 116.725 22.6919 116.813 22.8826C116.898 23.0696 117.019 23.2377 117.17 23.3772C117.323 23.5222 117.501 23.6368 117.697 23.7146C118.11 23.8815 118.572 23.8815 118.985 23.7146C119.181 23.6368 119.361 23.5223 119.514 23.3772C119.663 23.2368 119.784 23.0689 119.869 22.8826C119.957 22.6919 120.002 22.4846 120.002 22.2746C120.002 22.0648 119.957 21.8573 119.869 21.6666Z" fill="#008BCE"/>
<path d="M54.9818 36.404H50.9685C50.8661 36.4065 50.7669 36.3683 50.6924 36.2982C50.6179 36.2279 50.5739 36.1312 50.57 36.0288V32.8521C50.5716 32.8012 50.5831 32.7512 50.6039 32.7049C50.6247 32.6585 50.6545 32.6168 50.6916 32.5819C50.7286 32.5471 50.772 32.5198 50.8196 32.5017C50.8671 32.4837 50.9178 32.4753 50.9685 32.4768H53.3212C53.4233 32.4791 53.5222 32.441 53.5964 32.3707C53.6705 32.3004 53.7137 32.2037 53.7168 32.1015V30.4638C53.7153 30.413 53.7037 30.3629 53.6829 30.3165C53.6621 30.2702 53.6323 30.2283 53.5953 30.1935C53.5582 30.1586 53.5148 30.1315 53.4673 30.1134C53.4197 30.0954 53.3692 30.087 53.3183 30.0885H50.9685C50.9178 30.09 50.8671 30.0816 50.8196 30.0636C50.772 30.0455 50.7286 30.0182 50.6916 29.9834C50.6545 29.9485 50.6247 29.9068 50.6039 29.8603C50.5831 29.8141 50.5716 29.764 50.57 29.7132V26.4144C50.5716 26.3635 50.5831 26.3135 50.6039 26.2671C50.6247 26.2208 50.6545 26.1789 50.6916 26.1441C50.7286 26.1092 50.772 26.0821 50.8196 26.064C50.8671 26.046 50.9178 26.0376 50.9685 26.0391H52.2133C52.8735 26.0391 54.2257 26.1234 54.7579 26.4492C54.8166 26.4875 54.8844 26.5097 54.9544 26.5136C55.0245 26.5176 55.0942 26.503 55.1569 26.4716C55.2196 26.44 55.2729 26.3926 55.3115 26.3342C55.3502 26.2756 55.3729 26.208 55.3773 26.138V24.0231C55.3758 23.9722 55.3643 23.9222 55.3435 23.8759C55.3226 23.8295 55.2929 23.7877 55.2558 23.7529C55.2188 23.718 55.1754 23.6907 55.1278 23.6727C55.0803 23.6548 55.0297 23.6462 54.9789 23.6478H45.9636C45.8939 23.6432 45.8243 23.6584 45.7629 23.6914C45.7014 23.7246 45.6505 23.7742 45.6159 23.835C45.5813 23.8956 45.5645 23.9648 45.5674 24.0346C45.5701 24.1043 45.5926 24.172 45.632 24.2296C46.0304 24.8347 46.0304 25.4863 46.0304 26.8128V36.6251C46.0529 37.1923 45.9062 37.7533 45.6089 38.2368C45.5704 38.2948 45.5488 38.3624 45.5466 38.4321C45.5444 38.5017 45.5616 38.5706 45.5963 38.631C45.631 38.6914 45.6819 38.7409 45.7432 38.7741C45.8043 38.8072 45.8736 38.8226 45.9432 38.8186H54.9585C55.0602 38.8218 55.159 38.7847 55.2335 38.7155C55.308 38.6465 55.3524 38.5508 55.357 38.4491V36.7968C55.3559 36.7457 55.3446 36.6954 55.3239 36.6487C55.3032 36.602 55.2736 36.5598 55.2365 36.5247C55.1995 36.4896 55.1558 36.462 55.1081 36.4438C55.0605 36.4256 55.0096 36.4171 54.9585 36.4186" fill="#008BCE"/>
<path d="M72.6781 23.6478H69.4791C69.4094 23.6432 69.3397 23.6582 69.278 23.6912C69.2162 23.7241 69.165 23.7736 69.1299 23.834C69.0949 23.8945 69.0774 23.9635 69.0794 24.0335C69.0815 24.1034 69.1031 24.1713 69.1418 24.2296C69.6669 25.0358 69.9197 25.9891 69.8629 26.9496V31.7932C69.858 31.8743 69.8284 31.952 69.7784 32.0159C69.7282 32.0799 69.6599 32.1271 69.5823 32.1514C69.5049 32.1756 69.4218 32.1759 69.3441 32.1519C69.2665 32.128 69.1979 32.081 69.1476 32.0172L62.6624 23.799C62.6238 23.7514 62.5751 23.7131 62.5197 23.6869C62.4643 23.6607 62.4037 23.6474 62.3425 23.6478H58.4077C58.3391 23.6456 58.271 23.6624 58.2112 23.6964C58.1516 23.7304 58.1024 23.7803 58.0693 23.8405C58.0361 23.9009 58.0204 23.9691 58.0236 24.0377C58.0269 24.1064 58.0491 24.1728 58.0878 24.2296C58.8352 25.2013 58.8497 25.9606 58.8497 26.8478V34.9932C58.8497 36.311 58.8497 37.2768 58.2012 38.2251C58.1612 38.2834 58.1385 38.3518 58.136 38.4225C58.1334 38.4932 58.1509 38.5632 58.1867 38.6241C58.2224 38.6851 58.2748 38.7347 58.3376 38.7671C58.4004 38.7995 58.4711 38.8134 58.5415 38.8069H61.5951C61.6651 38.8121 61.7349 38.7974 61.7969 38.7646C61.8588 38.7317 61.9102 38.6821 61.9452 38.6212C61.98 38.5604 61.9971 38.491 61.9943 38.421C61.9916 38.3509 61.9691 38.2829 61.9294 38.2251C61.4322 37.5241 61.3741 36.8055 61.3741 35.8978V30.5598C61.3814 30.481 61.4118 30.4061 61.4617 30.3446C61.5114 30.283 61.5783 30.2376 61.6538 30.214C61.7293 30.1903 61.8101 30.1896 61.8862 30.2118C61.9621 30.234 62.0297 30.2781 62.0807 30.3387L66.2482 35.4324C67.6557 37.1779 68.7841 38.6702 71.9308 39.1298C71.9858 39.1399 72.0422 39.138 72.0965 39.1243C72.1507 39.1105 72.2014 39.0853 72.2449 39.0502C72.2886 39.0152 72.324 38.9711 72.3491 38.9211C72.3741 38.8711 72.3882 38.8163 72.3903 38.7605V26.9991C72.3457 26.0215 72.5647 25.0499 73.0241 24.186C73.0524 24.1275 73.0651 24.0626 73.0607 23.9978C73.0564 23.933 73.0353 23.8704 72.9996 23.8161C72.9638 23.7618 72.9146 23.7179 72.8567 23.6883C72.7989 23.6588 72.7343 23.6449 72.6694 23.6478" fill="#008BCE"/>
<path d="M88.702 30.836H84.7643C84.7065 30.8326 84.6487 30.8455 84.5979 30.8738C84.5471 30.9019 84.5053 30.9439 84.4776 30.9949C84.4498 31.0458 84.4373 31.1036 84.4411 31.1616C84.445 31.2194 84.4654 31.2751 84.4998 31.3219C84.9737 31.9619 84.9737 32.6426 84.9737 33.5212V36.2207C84.9714 36.3151 84.9346 36.4053 84.8703 36.4745C84.8061 36.5437 84.7187 36.5868 84.6248 36.596C84.397 36.6238 84.1678 36.6375 83.9384 36.6368C81.2484 36.6368 79.4482 34.3793 79.4482 30.8187C79.4482 27.4587 81.2222 25.5823 84.0344 25.5823C85.1745 25.6114 86.2946 25.8872 87.3178 26.3911C87.3801 26.4234 87.4499 26.4389 87.5201 26.4356C87.5903 26.4323 87.6584 26.4105 87.7175 26.3723C87.7766 26.3343 87.8245 26.2813 87.8565 26.2186C87.8883 26.1559 87.9032 26.086 87.8993 26.0158L87.9197 23.8864C87.9102 23.808 87.8774 23.7341 87.8255 23.6745C87.7737 23.6148 87.7052 23.5721 87.6289 23.5518C86.5377 23.2817 85.4174 23.1458 84.2933 23.1475C78.4304 23.1475 74.8503 26.5539 74.8503 31.1386C74.8503 35.8281 78.5497 39.1677 84.3456 39.1677C85.8593 39.1476 87.3646 38.9394 88.8271 38.548C88.9087 38.5266 88.9811 38.4794 89.0336 38.4132C89.0861 38.3471 89.1156 38.2658 89.1179 38.1815V31.2113C89.1164 31.1602 89.1049 31.1098 89.0838 31.0631C89.0628 31.0164 89.0328 30.9742 88.9956 30.9391C88.9583 30.9039 88.9145 30.8765 88.8667 30.8583C88.8187 30.8402 88.7679 30.8316 88.7166 30.8331" fill="#008BCE"/>
<path d="M106.596 36.6193V26.807C106.596 25.4806 106.622 24.8318 107.024 24.2267C107.062 24.1688 107.084 24.1014 107.086 24.0321C107.088 23.9628 107.071 23.8941 107.037 23.8339C107.002 23.7735 106.952 23.7241 106.891 23.6906C106.83 23.6573 106.761 23.6414 106.692 23.6449H101.975C101.906 23.6409 101.836 23.6563 101.775 23.6895C101.714 23.7226 101.663 23.772 101.628 23.8325C101.594 23.8929 101.576 23.9617 101.579 24.0313C101.581 24.101 101.602 24.1687 101.641 24.2267C102.045 24.8318 102.074 25.4806 102.074 26.3097V29.719C102.07 29.8214 102.026 29.9182 101.952 29.9883C101.877 30.0586 101.778 30.0966 101.676 30.0943H97.232C97.1811 30.0958 97.1306 30.0874 97.083 30.0693C97.0355 30.0513 96.992 30.0242 96.955 29.9893C96.918 29.9544 96.8882 29.9126 96.8674 29.8663C96.8465 29.8198 96.835 29.7698 96.8335 29.719V26.3097C96.8335 25.4806 96.848 24.8289 97.2464 24.2238C97.2849 24.1658 97.3065 24.0981 97.3087 24.0284C97.3108 23.9589 97.2935 23.89 97.2588 23.8296C97.2241 23.7691 97.1734 23.7197 97.1121 23.6865C97.0508 23.6534 96.9815 23.638 96.912 23.642H92.2445C92.1749 23.638 92.1056 23.6534 92.0444 23.6865C91.9831 23.7197 91.9323 23.7691 91.8975 23.8296C91.8628 23.89 91.8456 23.9589 91.8478 24.0284C91.85 24.0981 91.8715 24.1658 91.9099 24.2238C92.3113 24.8289 92.3113 25.4777 92.3113 26.8041V36.6164C92.3324 37.1838 92.1845 37.7447 91.8867 38.228C91.8481 38.2864 91.8264 38.3543 91.8244 38.4242C91.8223 38.494 91.8398 38.5632 91.8748 38.6237C91.9099 38.6841 91.9612 38.7337 92.0229 38.7665C92.0846 38.7995 92.1542 38.8145 92.2241 38.8098H96.9236C96.9936 38.815 97.0635 38.8003 97.1255 38.7675C97.1873 38.7346 97.2387 38.685 97.2737 38.6241C97.3087 38.5633 97.3258 38.4939 97.323 38.4239C97.3203 38.3538 97.2977 38.2858 97.2581 38.228C96.848 37.6026 96.8335 36.9394 96.8335 36.1189V32.8317C96.835 32.781 96.8465 32.7311 96.8674 32.685C96.8882 32.6387 96.9181 32.5971 96.9552 32.5625C96.9921 32.5279 97.0356 32.5009 97.0832 32.4833C97.1307 32.4655 97.1813 32.4574 97.232 32.4594H101.676C101.778 32.4563 101.877 32.4936 101.951 32.5634C102.026 32.6332 102.07 32.7296 102.074 32.8317V36.1189C102.074 36.9394 102.045 37.5997 101.629 38.228C101.589 38.2858 101.567 38.3538 101.564 38.4239C101.561 38.4939 101.579 38.5633 101.613 38.6241C101.648 38.685 101.7 38.7346 101.762 38.7675C101.824 38.8003 101.894 38.815 101.963 38.8098H106.704C106.774 38.815 106.844 38.8003 106.906 38.7675C106.968 38.7346 107.019 38.685 107.054 38.6241C107.089 38.5633 107.106 38.4939 107.103 38.4239C107.1 38.3538 107.078 38.2858 107.038 38.228C106.735 37.7465 106.581 37.1856 106.596 36.6164" fill="#008BCE"/>
<path d="M114.826 36.1218V26.3097C114.826 25.4806 114.841 24.8289 115.239 24.2238C115.278 24.1658 115.299 24.0981 115.301 24.0284C115.304 23.9589 115.286 23.89 115.252 23.8296C115.217 23.7691 115.166 23.7197 115.105 23.6865C115.044 23.6534 114.974 23.638 114.905 23.642H110.252C110.182 23.638 110.113 23.6534 110.052 23.6865C109.99 23.7197 109.94 23.7691 109.905 23.8296C109.87 23.89 109.853 23.9589 109.855 24.0284C109.857 24.0981 109.879 24.1658 109.917 24.2238C110.319 24.8289 110.319 25.4777 110.319 26.3066V36.1189C110.319 36.9394 110.319 37.6026 109.894 38.228C109.856 38.2861 109.834 38.3538 109.832 38.4233C109.83 38.493 109.847 38.5619 109.882 38.6223C109.916 38.6826 109.967 38.7322 110.028 38.7653C110.09 38.7985 110.159 38.8139 110.228 38.8098H114.928C114.998 38.8145 115.068 38.7995 115.129 38.7665C115.191 38.7337 115.242 38.6841 115.277 38.6237C115.312 38.5632 115.33 38.494 115.328 38.4242C115.326 38.3543 115.304 38.2864 115.265 38.228C114.852 37.6026 114.838 36.9394 114.838 36.1189" fill="#008BCE"/>
<path d="M42.5146 36.4039H38.4897C38.4389 36.4056 38.3883 36.397 38.3408 36.379C38.2932 36.3609 38.2497 36.3338 38.2128 36.2989C38.1757 36.2641 38.1459 36.2223 38.1251 36.1759C38.1043 36.1295 38.0928 36.0795 38.0913 36.0288V26.3096C38.0913 25.4805 38.0913 24.8317 38.5042 24.2266C38.5426 24.1686 38.5642 24.1009 38.5664 24.0312C38.5686 23.9617 38.5514 23.8928 38.5167 23.8324C38.482 23.7719 38.4311 23.7225 38.3698 23.6894C38.3085 23.6562 38.2394 23.6408 38.1698 23.6448H33.4993C33.43 23.6413 33.3611 23.6572 33.3003 23.6905C33.2395 23.7239 33.189 23.7735 33.1547 23.8338C33.1203 23.894 33.1035 23.9628 33.1057 24.0321C33.108 24.1014 33.1295 24.1687 33.1678 24.2266C33.5661 24.8317 33.5661 25.4805 33.5661 26.3096V36.1218C33.5661 36.9422 33.5661 37.6054 33.1445 38.2309C33.1048 38.2888 33.0824 38.3566 33.0796 38.4267C33.0769 38.4967 33.094 38.5661 33.1288 38.6269C33.1638 38.6878 33.2152 38.7374 33.2771 38.7703C33.3391 38.8031 33.4089 38.8178 33.4789 38.8127H42.4942C42.5949 38.8159 42.6929 38.7797 42.7673 38.7117C42.8417 38.6438 42.8867 38.5496 42.8926 38.449V36.788C42.8911 36.7372 42.8797 36.6872 42.8589 36.6407C42.8379 36.5944 42.8082 36.5526 42.7713 36.5177C42.7342 36.4829 42.6907 36.4557 42.6431 36.4377C42.5956 36.4196 42.545 36.4112 42.4942 36.4127" fill="#008BCE"/>
<path d="M22.7621 36.9423C20.3454 36.9423 18.6151 34.5742 18.6151 30.7081C18.6151 27.4878 20.2117 25.6986 22.5003 25.6986C24.9403 25.6986 26.6736 28.0696 26.6736 31.9125C26.6736 35.1532 25.0945 36.9423 22.7621 36.9423ZM22.6371 23.3046C17.9288 23.3046 14.1133 26.8565 14.1133 31.2434C14.1133 35.6303 17.9288 39.1822 22.6371 39.1822C27.3454 39.1822 31.158 35.6274 31.158 31.2434C31.158 26.8594 27.3425 23.3046 22.6371 23.3046Z" fill="#008BCE"/>
<path d="M7.13078 20.7823H0.383824C0.318293 20.7783 0.252902 20.7925 0.194964 20.8233C0.137025 20.8542 0.0888185 20.9006 0.0556611 20.9572C0.0225034 21.014 0.00570749 21.0788 0.00716781 21.1445C0.00862813 21.2101 0.0282522 21.274 0.0638971 21.3292C0.604817 22.071 0.616484 22.8593 0.60776 23.8805V36.6221C0.60776 37.4424 0.607704 37.6258 0.186017 38.2512C0.147573 38.3093 0.126085 38.377 0.123892 38.4465C0.1217 38.5162 0.13888 38.5851 0.173593 38.6455C0.208306 38.7058 0.259162 38.7554 0.320421 38.7885C0.381681 38.8217 0.450978 38.8371 0.5205 38.833H5.60689C5.67642 38.8371 5.74564 38.8217 5.80691 38.7885C5.86816 38.7554 5.91901 38.7058 5.95373 38.6455C5.98845 38.5851 6.0057 38.5162 6.00351 38.4465C6.0013 38.377 5.97976 38.3093 5.9413 38.2512C5.53416 37.6258 5.52254 37.4424 5.52254 36.6221V23.8339C5.52655 23.7839 5.54051 23.7352 5.56352 23.6907C5.58653 23.646 5.61809 23.6065 5.65653 23.5744C5.69495 23.5421 5.73941 23.5179 5.7873 23.503C5.83519 23.4881 5.88558 23.4829 5.93549 23.4877C7.47392 23.4877 8.72445 24.9423 8.72445 26.6266C8.72445 28.311 7.86942 29.2884 6.73523 30.1321C6.6766 30.1773 6.63403 30.2401 6.61375 30.3113C6.59348 30.3827 6.59659 30.4585 6.62263 30.5279C6.64866 30.5972 6.6963 30.6563 6.75845 30.6967C6.8206 30.7369 6.89399 30.7562 6.9679 30.7516C11.0655 30.7749 13.3455 28.6746 13.3455 25.5532C13.3455 22.4317 10.7805 20.7823 7.11914 20.7823" fill="#008BCE"/>
</g>
</g>
<defs>
<clipPath id="clip0_20_82">
<rect width="120" height="39.1274" fill="white"/>
</clipPath>
</defs>
</svg>
